<?xml version="1.0" standalone="no"?>
<!DOCTYPE svg PUBLIC "-//W3C//DTD SVG 20010904//EN"
 "http://www.w3.org/TR/2001/REC-SVG-20010904/DTD/svg10.dtd">
<svg version="1.0" xmlns="http://www.w3.org/2000/svg"
 width="450.000000pt" height="450.000000pt" viewBox="0 0 450.000000 450.000000"
 preserveAspectRatio="xMidYMid meet">

<g transform="translate(0.000000,450.000000) scale(0.100000,-0.100000)"
fill="#000000" stroke="none">
<path d="M1325 3073 c-69 -6 -83 -12 -104 -47 -19 -30 -21 -49 -21 -181 l0
-147 35 -35 35 -35 0 -151 c0 -275 23 -400 99 -562 137 -289 385 -481 706
-546 96 -19 286 -15 385 9 311 75 565 288 687 577 55 129 66 196 70 443 l5
232 29 21 c38 27 49 72 49 209 0 134 -14 174 -70 202 -33 17 -97 18 -950 16
-503 -1 -933 -3 -955 -5z m1893 -217 c2 -105 -1 -141 -10 -148 -7 -4 -441 -8
-963 -8 -727 0 -954 3 -963 12 -13 13 -18 242 -6 272 6 15 98 16 973 14 l966
-3 3 -139z m-71 -453 c-3 -169 -9 -243 -21 -288 -90 -323 -304 -549 -616 -650
-71 -23 -108 -28 -227 -33 -179 -6 -283 15 -430 87 -109 54 -173 101 -259 191
-98 101 -165 218 -212 364 -23 75 -26 98 -30 319 l-4 237 902 0 902 0 -5 -227z"/>
<path d="M1434 2536 c-3 -8 -4 -23 -2 -33 3 -17 21 -18 248 -21 218 -2 246 -1
257 14 9 12 9 22 2 35 -9 18 -26 19 -255 19 -204 0 -246 -2 -250 -14z"/>
<path d="M2182 2319 c-149 -25 -277 -156 -301 -310 -26 -164 62 -325 217 -397
79 -37 209 -38 295 -4 73 30 152 107 192 187 26 53 29 70 30 155 0 83 -4 102
-27 152 -54 116 -161 198 -285 218 -32 6 -60 9 -63 9 -3 -1 -29 -5 -58 -10z
m171 -85 c104 -35 183 -144 194 -266 11 -114 -60 -233 -172 -288 -40 -20 -65
-25 -130 -25 -70 0 -87 4 -134 30 -106 59 -161 151 -161 272 0 127 77 236 197
279 52 18 150 17 206 -2z"/>
<path d="M2215 2173 c-102 -22 -163 -81 -185 -180 -23 -99 51 -226 147 -252
139 -39 276 47 290 182 10 99 -34 185 -116 226 -39 20 -104 31 -136 24z m115
-95 c39 -27 70 -81 70 -123 0 -17 -10 -51 -22 -75 -30 -57 -76 -83 -141 -77
-146 13 -190 192 -67 274 45 31 115 31 160 1z"/>
</g>
</svg>
