<?xml version="1.0" standalone="no"?>
<!DOCTYPE svg PUBLIC "-//W3C//DTD SVG 20010904//EN"
 "http://www.w3.org/TR/2001/REC-SVG-20010904/DTD/svg10.dtd">
<svg version="1.0" xmlns="http://www.w3.org/2000/svg"
 width="225.000000pt" height="225.000000pt" viewBox="0 0 225.000000 225.000000"
 preserveAspectRatio="xMidYMid meet">

<g transform="translate(0.000000,225.000000) scale(0.100000,-0.100000)"
fill="#000000" stroke="none">
<path d="M100 1676 c0 -2 33 -67 74 -143 l74 -138 877 0 877 0 74 138 c41 76
74 141 74 143 0 2 -461 4 -1025 4 -564 0 -1025 -2 -1025 -4z"/>
<path d="M290 1312 c0 -45 36 -173 68 -244 102 -225 293 -390 539 -465 77 -23
105 -26 228 -26 123 0 151 3 228 26 246 75 437 240 539 465 32 71 68 199 68
244 l0 28 -835 0 -835 0 0 -28z m943 -56 c18 -7 53 -29 80 -50 26 -20 56 -36
68 -36 85 0 130 -116 65 -168 -16 -12 -24 -32 -29 -69 -27 -229 -315 -336
-491 -182 -183 161 -107 459 131 519 46 11 133 4 176 -14z"/>
<path d="M1047 1216 c-148 -53 -218 -218 -148 -353 69 -134 233 -176 364 -93
91 57 145 218 75 220 -5 0 -8 -9 -8 -20 0 -32 -28 -92 -58 -123 -78 -83 -196
-84 -277 -2 -85 84 -81 204 9 283 71 63 169 67 246 11 34 -25 44 -28 51 -17
14 21 11 25 -26 53 -65 50 -156 66 -228 41z"/>
<path d="M1057 1108 c-80 -47 -97 -153 -35 -224 93 -106 271 -28 255 112 -12
109 -125 166 -220 112z"/>
</g>
</svg>
