<?xml version="1.0" standalone="no"?>
<!DOCTYPE svg PUBLIC "-//W3C//DTD SVG 20010904//EN"
 "http://www.w3.org/TR/2001/REC-SVG-20010904/DTD/svg10.dtd">
<svg version="1.0" xmlns="http://www.w3.org/2000/svg"
 width="225.000000pt" height="225.000000pt" viewBox="0 0 225.000000 225.000000"
 preserveAspectRatio="xMidYMid meet">

<g transform="translate(0.000000,225.000000) scale(0.100000,-0.100000)"
fill="#000000" stroke="none">
<path d="M899 1508 c-23 -40 -64 -111 -91 -157 -27 -46 -47 -85 -46 -86 27
-20 550 -315 560 -315 7 0 24 7 36 15 20 15 26 14 91 -25 38 -22 75 -40 83
-40 7 0 35 38 62 85 26 47 50 85 52 85 8 0 135 -31 149 -36 13 -6 16 -1 13 21
-2 22 -14 35 -53 58 -142 83 -756 437 -783 451 l-31 16 -42 -72z"/>
<path d="M940 1050 c-11 -21 -20 -44 -20 -49 0 -9 144 -99 182 -114 13 -5 24
4 43 37 14 23 25 45 25 48 0 6 -194 118 -204 118 -3 0 -15 -18 -26 -40z"/>
<path d="M1617 975 c-20 -35 -37 -68 -37 -73 0 -15 31 -24 44 -13 22 20 69
119 63 135 -12 30 -33 16 -70 -49z"/>
<path d="M440 790 l0 -120 33 0 c50 0 57 13 57 116 0 103 -10 124 -61 124
l-29 0 0 -120z"/>
<path d="M933 870 l-16 -40 -169 0 -168 0 0 -45 0 -45 195 0 195 1 30 66 c17
36 29 67 28 68 -8 6 -68 35 -73 35 -4 0 -14 -18 -22 -40z"/>
</g>
</svg>
