<?xml version="1.0" standalone="no"?>
<!DOCTYPE svg PUBLIC "-//W3C//DTD SVG 20010904//EN"
 "http://www.w3.org/TR/2001/REC-SVG-20010904/DTD/svg10.dtd">
<svg version="1.0" xmlns="http://www.w3.org/2000/svg"
 width="225.000000pt" height="225.000000pt" viewBox="0 0 225.000000 225.000000"
 preserveAspectRatio="xMidYMid meet">

<g transform="translate(0.000000,225.000000) scale(0.100000,-0.100000)"
fill="#000000" stroke="none">
<path d="M1149 1783 c-1 -5 0 -53 1 -109 l2 -100 -159 -56 c-87 -31 -188 -67
-225 -80 -66 -22 -68 -24 -68 -57 0 -28 3 -32 18 -26 9 4 112 41 229 82 l212
75 143 -52 c79 -29 178 -65 221 -81 l77 -28 0 32 0 33 -162 58 c-296 106 -268
92 -268 137 l0 39 71 0 70 0 -3 48 -3 47 -67 0 c-39 0 -67 4 -67 10 3 22 -2
35 -11 35 -5 0 -11 -3 -11 -7z"/>
<path d="M1035 1439 c-60 -22 -156 -55 -212 -75 l-103 -36 0 -329 0 -329 25 0
25 0 0 309 c0 171 4 312 9 315 4 3 91 34 193 70 l184 64 185 -68 184 -68 3
-316 2 -316 25 0 25 0 0 333 0 333 -212 77 c-117 43 -215 77 -218 77 -3 -1
-54 -19 -115 -41z"/>
<path d="M1093 1278 c-29 -32 -34 -53 -21 -88 10 -31 52 -60 86 -60 29 0 70
37 77 69 7 33 -15 85 -40 95 -36 13 -82 6 -102 -16z m67 -34 c0 -17 5 -24 20
-24 11 0 20 -7 20 -15 0 -10 -10 -15 -30 -15 -29 0 -30 2 -30 46 0 27 4 43 10
39 6 -3 10 -17 10 -31z"/>
<path d="M545 1218 c-43 -25 -44 -32 -45 -300 l0 -258 25 0 25 0 0 248 c0 180
3 251 12 260 7 7 39 12 76 12 60 0 63 1 60 23 -3 20 -9 22 -68 24 -36 2 -74
-2 -85 -9z"/>
<path d="M1607 1223 c-4 -3 -7 -15 -7 -25 0 -15 8 -18 59 -18 99 0 91 22 91
-266 l0 -254 25 0 25 0 0 258 c-1 270 -2 276 -47 300 -23 13 -135 17 -146 5z"/>
<path d="M600 965 l0 -45 40 0 40 0 0 45 0 45 -40 0 -40 0 0 -45z"/>
<path d="M1620 965 l0 -45 40 0 40 0 0 45 0 45 -40 0 -40 0 0 -45z"/>
<path d="M850 915 l0 -45 40 0 40 0 0 45 0 45 -40 0 -40 0 0 -45z"/>
<path d="M1370 915 l0 -45 40 0 40 0 0 45 0 45 -40 0 -40 0 0 -45z"/>
<path d="M1032 928 c-8 -8 -12 -57 -12 -155 l0 -143 -307 -2 -308 -3 -3 -32
-3 -33 751 0 751 0 -3 33 -3 32 -307 3 -308 2 0 143 c0 98 -4 147 -12 155 -16
16 -220 16 -236 0z"/>
<path d="M600 815 l0 -45 40 0 40 0 0 45 0 45 -40 0 -40 0 0 -45z"/>
<path d="M1620 815 l0 -45 40 0 40 0 0 45 0 45 -40 0 -40 0 0 -45z"/>
<path d="M850 765 l0 -45 40 0 40 0 0 45 0 45 -40 0 -40 0 0 -45z"/>
<path d="M1370 764 l0 -45 38 3 c36 3 37 4 40 46 l3 42 -40 0 -41 0 0 -46z"/>
<path d="M330 495 l0 -35 795 0 795 0 0 35 0 35 -795 0 -795 0 0 -35z"/>
</g>
</svg>
